# File created by Blade
# Date/Time:  Thu Jan 22 16:25:48 2015
# Frame Rate: 120.000 fps
#------------------------------------------------------
:FULLY-SPECIFIED
:DEGREES
674
root 3.483157 39.766609 8.297879 59.481977 14.104461 48.424827
RightUpLeg -29.788153 -19.606197 -42.972954
RightLeg -7.943961 -0.000000 0.000000
RightFoot -4.651242 -26.007383 12.551311
RightToeBase 11.615225 -0.000000 -0.000000
LeftUpLeg 9.670237 -21.017878 12.825080
LeftLeg 139.255745 -0.000000 -0.000000
LeftFoot 19.303616 14.412678 -28.984319
LeftToeBase 2.127021 -0.000000 -0.000000
Spine 15.516246 -5.828641 -6.208138
RightShoulder -14.261505 -4.371683 -48.812557
RightArm 56.951593 65.258354 29.964056
RightForeArm -1.270261 -0.000000 11.775066
RightHand 7.273279 -0.000000 -10.504055
RightHandThumb1 -24.326973 -0.000000 -32.862282
LeftShoulder -32.662537 35.540248 -14.476105
LeftArm 24.836687 -20.609785 -85.204050
LeftForeArm 46.831745 -0.000000 9.883370
LeftHand -15.930845 0.000000 -18.638798
LeftHandThumb1 -26.253704 0.000000 33.147579
Head -16.082322 -20.583293 -15.621935
675
root 3.481268 39.767597 8.307314 59.535290 14.212940 48.460606
RightUpLeg -29.750791 -19.566668 -42.978015
RightLeg -7.896184 -0.000000 0.000000
RightFoot -4.599080 -26.089961 12.490549
RightToeBase 11.473031 -0.000000 -0.000000
LeftUpLeg 9.603351 -21.198645 12.835944
LeftLeg 139.290172 -0.000000 -0.000000
LeftFoot 19.193640 14.528800 -28.920460
LeftToeBase 2.246661 -0.000000 -0.000000
Spine 15.532820 -6.014769 -6.180151
RightShoulder -14.262522 -4.342606 -48.857098
RightArm 56.412732 65.109527 29.501835
RightForeArm -0.982662 -0.000000 11.760389
RightHand 7.214774 -0.000000 -10.723618
RightHandThumb1 -24.326973 -0.000000 -32.862282
LeftShoulder -32.653817 35.540083 -14.512370
LeftArm 24.903004 -20.550496 -85.180977
LeftForeArm 46.913925 0.000000 9.808529
LeftHand -15.972432 -0.000000 -18.586113
LeftHandThumb1 -26.253704 0.000000 33.147579
Head -16.074519 -20.696977 -15.661586
676
root 3.478826 39.768253 8.319009 59.591540 14.317371 48.480766
RightUpLeg -29.740167 -19.578064 -42.929060
RightLeg -7.862488 -0.000000 0.000000
RightFoot -4.529159 -26.166165 12.462629
RightToeBase 11.607337 -0.000000 -0.000000
LeftUpLeg 9.540469 -21.357732 12.864207
LeftLeg 139.310963 -0.000000 -0.000000
LeftFoot 19.076608 14.686576 -28.842852
LeftToeBase 2.243070 -0.000000 -0.000000
Spine 15.529317 -6.172790 -6.140662
RightShoulder -14.266316 -4.272304 -48.907215
RightArm 56.676837 65.123019 29.914046
RightForeArm -1.110387 -0.000000 11.756691
RightHand 7.273882 0.000000 -10.833679
RightHandThumb1 -24.326973 -0.000000 -32.862282
LeftShoulder -32.640735 35.506091 -14.527574
LeftArm 24.925695 -20.446983 -85.105568
LeftForeArm 46.983210 -0.000000 9.733521
LeftHand -16.076490 -0.000000 -18.588213
LeftHandThumb1 -26.253704 0.000000 33.147579
Head -16.012669 -20.759144 -15.757214
677
root 3.477072 39.770110 8.330285 59.666673 14.385570 48.474792
RightUpLeg -29.785931 -19.670448 -42.839923
RightLeg -7.840698 -0.000000 0.000000
RightFoot -4.489482 -26.086970 12.530513
RightToeBase 11.530783 -0.000000 -0.000000
LeftUpLeg 9.472842 -21.463305 12.882048
LeftLeg 139.310426 -0.000000 -0.000000
LeftFoot 18.934884 14.870889 -28.804664
LeftToeBase 2.307540 -0.000000 -0.000000
Spine 15.478572 -6.262528 -6.117345
RightShoulder -14.264376 -4.238014 -48.914348
RightArm 56.723883 65.093846 30.028513
RightForeArm -1.058732 -0.000000 11.729986
RightHand 7.357256 0.000000 -11.006276
RightHandThumb1 -24.326973 -0.000000 -32.862282
LeftShoulder -32.601323 35.474539 -14.498940
LeftArm 24.901442 -20.394238 -85.046779
LeftForeArm 47.101601 -0.000000 9.698301
LeftHand -16.148364 0.000000 -18.589055
LeftHandThumb1 -26.253704 0.000000 33.147579
Head -15.888283 -20.842494 -15.874914
678
root 3.476170 39.771635 8.341682 59.734707 14.443865 48.468607
RightUpLeg -29.835497 -19.839873 -42.707396
RightLeg -7.840052 -0.000000 0.000000
RightFoot -4.494171 -25.978393 12.762597
RightToeBase 11.874243 -0.000000 -0.000000
LeftUpLeg 9.431436 -21.571734 12.900866
LeftLeg 139.314008 -0.000000 -0.000000
LeftFoot 18.811867 14.967532 -28.732975
LeftToeBase 2.183586 -0.000000 -0.000000
Spine 15.433772 -6.334004 -6.108037
RightShoulder -14.263656 -4.268557 -48.901465
RightArm 56.659903 65.097847 30.043020
RightForeArm -0.998896 -0.000000 11.758049
RightHand 7.475145 0.000000 -10.998009
RightHandThumb1 -24.326973 -0.000000 -32.862282
LeftShoulder -32.597642 35.489027 -14.486975
LeftArm 24.930180 -20.393569 -85.035051
LeftForeArm 47.236875 -0.000000 9.679683
LeftHand -16.123059 -0.000000 -18.639691
LeftHandThumb1 -26.253704 0.000000 33.147579
Head -15.767982 -20.914028 -15.970405
679
root 3.476524 39.771370 8.354721 59.793244 14.487809 48.448184
RightUpLeg -29.909783 -20.118227 -42.496920
RightLeg -7.878055 -0.000000 0.000000
RightFoot -4.407109 -25.702275 12.998565
RightToeBase 11.942765 -0.000000 -0.000000
LeftUpLeg 9.416872 -21.660465 12.916002
LeftLeg 139.284818 -0.000000 -0.000000
LeftFoot 18.708908 15.063268 -28.702603
LeftToeBase 2.297092 -0.000000 -0.000000
Spine 15.382581 -6.352541 -6.095187
RightShoulder -14.263110 -4.257674 -48.924950
RightArm 56.752968 65.099309 30.267338
RightForeArm -1.105250 -0.000000 11.784879
RightHand 7.582069 -0.000000 -11.080083
RightHandThumb1 -24.326973 -0.000000 -32.862282
LeftShoulder -32.569162 35.535221 -14.473784
LeftArm 24.973991 -20.428324 -85.026205
LeftForeArm 47.337443 -0.000000 9.672675
LeftHand -16.108321 -0.000000 -18.716183
LeftHandThumb1 -26.253704 0.000000 33.147579
Head -15.619267 -20.979988 -16.089732
680
root 3.478496 39.771202 8.367729 59.831906 14.500961 48.441676
RightUpLeg -29.954945 -20.444361 -42.295161
RightLeg -7.954266 -0.000000 0.000000
RightFoot -4.393655 -25.351825 13.447393
RightToeBase 12.302127 -0.000000 -0.000000
LeftUpLeg 9.445690 -21.730387 12.879745
LeftLeg 139.245537 -0.000000 -0.000000
LeftFoot 18.677562 15.135832 -28.599991
LeftToeBase 2.200737 -0.000000 -0.000000
Spine 15.366530 -6.343452 -6.136108
RightShoulder -14.255906 -4.290959 -48.922964
RightArm 56.389981 65.045995 30.013599
RightForeArm -1.023647 -0.000000 11.859415
RightHand 7.386480 -0.000000 -11.074864
RightHandThumb1 -24.326973 -0.000000 -32.862282
LeftShoulder -32.569457 35.575313 -14.458078
LeftArm 25.014539 -20.486056 -85.019648
LeftForeArm 47.446517 -0.000000 9.706496
LeftHand -16.058005 -0.000000 -18.807776
LeftHandThumb1 -26.253704 0.000000 33.147579
Head -15.493963 -20.998200 -16.151202
681
root 3.479231 39.772035 8.380194 59.864537 14.504182 48.414668
RightUpLeg -30.037195 -20.868915 -42.021767
RightLeg -8.035052 -0.000000 0.000000
RightFoot -4.358868 -24.751855 13.855045
RightToeBase 12.426320 -0.000000 -0.000000
LeftUpLeg 9.492006 -21.785417 12.847255
LeftLeg 139.202273 -0.000000 -0.000000
LeftFoot 18.663747 15.155504 -28.577511
LeftToeBase 2.197722 -0.000000 -0.000000
Spine 15.352004 -6.314919 -6.169763
RightShoulder -14.230127 -4.309491 -48.923046
RightArm 55.927130 64.976547 29.624128
RightForeArm -0.858854 -0.000000 11.887095
RightHand 7.600501 -0.000000 -11.307099
RightHandThumb1 -24.326973 -0.000000 -32.862282
LeftShoulder -32.577031 35.611277 -14.449793
LeftArm 25.041440 -20.528912 -84.996362
LeftForeArm 47.516811 -0.000000 9.729885
LeftHand -16.003567 -0.000000 -18.860056
LeftHandThumb1 -26.253704 0.000000 33.147579
Head -15.373439 -20.985140 -16.228232
682
root 3.480714 39.772283 8.393817 59.867882 14.493513 48.386573
RightUpLeg -30.084004 -21.321563 -41.730899
RightLeg -8.166226 -0.000000 0.000000
RightFoot -4.427666 -24.116619 14.441421
RightToeBase 13.023087 -0.000000 -0.000000
LeftUpLeg 9.582340 -21.844393 12.796864
LeftLeg 139.145723 -0.000000 -0.000000
LeftFoot 18.689168 15.124267 -28.553793
LeftToeBase 2.231064 -0.000000 -0.000000
Spine 15.370958 -6.240646 -6.214672
RightShoulder -14.239657 -4.314111 -48.921645
RightArm 55.999570 65.008467 29.788015
RightForeArm -0.939461 -0.000000 11.855195
RightHand 7.615748 -0.000000 -11.220491
RightHandThumb1 -24.326973 -0.000000 -32.862282
LeftShoulder -32.498845 35.613113 -14.360654
LeftArm 24.982506 -20.578889 -84.956950
LeftForeArm 47.545401 -0.000000 9.769962
LeftHand -15.987540 -0.000000 -18.882307
LeftHandThumb1 -26.253704 0.000000 33.147579
Head -15.277454 -21.060294 -16.271071
683
root 3.485275 39.772851 8.408056 59.861274 14.469296 48.348264
RightUpLeg -30.132432 -21.812537 -41.427494
RightLeg -8.297646 -0.000000 0.000000
RightFoot -4.475608 -23.426724 15.070533
RightToeBase 13.587167 -0.000000 -0.000000
LeftUpLeg 9.702871 -21.869465 12.734193
LeftLeg 139.079533 -0.000000 -0.000000
LeftFoot 18.722965 15.070417 -28.566848
LeftToeBase 2.267174 -0.000000 -0.000000
Spine 15.411749 -6.202987 -6.281231
RightShoulder -14.237285 -4.234222 -48.910982
RightArm 55.961769 64.988918 29.803832
RightForeArm -0.834771 -0.000000 11.810308
RightHand 7.639714 0.000000 -11.183956
RightHandThumb1 -24.326973 -0.000000 -32.862282
LeftShoulder -32.508775 35.555048 -14.318763
LeftArm 24.891962 -20.619782 -84.889025
LeftForeArm 47.532298 -0.000000 9.813240
LeftHand -15.968769 -0.000000 -18.908748
LeftHandThumb1 -26.253704 0.000000 33.147579
Head -15.267743 -21.010659 -16.276681
684
root 3.489713 39.774207 8.420282 59.851721 14.438104 48.301045
RightUpLeg -30.224193 -22.440876 -41.029536
RightLeg -8.448291 -0.000000 0.000000
RightFoot -4.513427 -22.514643 15.780790
RightToeBase 14.057679 -0.000000 -0.000000
LeftUpLeg 9.826785 -21.880203 12.680847
LeftLeg 139.010897 -0.000000 -0.000000
LeftFoot 18.804199 14.999343 -28.554884
LeftToeBase 2.205733 -0.000000 -0.000000
Spine 15.457292 -6.116177 -6.333996
RightShoulder -14.248804 -4.198658 -48.913918
RightArm 55.967340 65.003878 29.903961
RightForeArm -0.860417 -0.000000 11.815865
RightHand 7.545256 -0.000000 -11.243763
RightHandThumb1 -24.326973 -0.000000 -32.862282
LeftShoulder -32.512958 35.558401 -14.293618
LeftArm 24.870678 -20.664830 -84.861637
LeftForeArm 47.515346 -0.000000 9.867762
LeftHand -15.942570 -0.000000 -18.988707
LeftHandThumb1 -26.253704 0.000000 33.147579
Head -15.272404 -20.981979 -16.280875
685
root 3.495300 39.775925 8.431837 59.840861 14.406195 48.243579
RightUpLeg -30.298787 -22.977563 -40.680289
RightLeg -8.596896 -0.000000 0.000000
RightFoot -4.519130 -21.680225 16.399869
RightToeBase 14.481604 -0.000000 -0.000000
LeftUpLeg 9.950754 -21.845111 12.648857
LeftLeg 138.941451 -0.000000 -0.000000
LeftFoot 18.850030 14.954195 -28.487819
LeftToeBase 2.193350 -0.000000 -0.000000
Spine 15.502904 -6.010837 -6.367242
RightShoulder -14.268414 -4.151060 -48.915031
RightArm 56.145643 65.058198 30.152409
RightForeArm -0.939383 0.000000 11.781455
RightHand 7.499664 0.000000 -11.284217
RightHandThumb1 -24.326973 -0.000000 -32.862282
LeftShoulder -32.519046 35.565129 -14.272533
LeftArm 24.846353 -20.697488 -84.846284
LeftForeArm 47.516192 0.000000 9.937333
LeftHand -15.965479 0.000000 -19.044330
LeftHandThumb1 -26.253704 0.000000 33.147579
Head -15.296482 -20.979428 -16.278412
686
root 3.500734 39.778309 8.442391 59.836419 14.358709 48.171898
RightUpLeg -30.399176 -23.436277 -40.353922
RightLeg -8.720321 -0.000000 0.000000
RightFoot -4.570895 -20.895790 17.025283
RightToeBase 14.954661 -0.000000 -0.000000
LeftUpLeg 10.070094 -21.790748 12.624715
LeftLeg 138.871532 -0.000000 -0.000000
LeftFoot 18.872369 14.907247 -28.547150
LeftToeBase 2.174482 -0.000000 -0.000000
Spine 15.544926 -5.877777 -6.398993
RightShoulder -14.290900 -4.159461 -48.914613
RightArm 56.171513 65.131388 30.237302
RightForeArm -0.888790 -0.000000 11.756277
RightHand 7.610770 -0.000000 -11.117623
RightHandThumb1 -24.326973 -0.000000 -32.862282
LeftShoulder -32.528410 35.584095 -14.269269
LeftArm 24.843095 -20.764056 -84.861085
LeftForeArm 47.582791 -0.000000 10.018087
LeftHand -16.013902 -0.000000 -19.051315
LeftHandThumb1 -26.253704 0.000000 33.147579
Head -15.357938 -20.973396 -16.264957
